<?xml version="1.0" encoding="UTF-8" standalone="no"?>
<svg
   height="800"
   width="1200"
   version="1.2"
   viewBox="-32.4 -49.725 280.8 298.35"
   id="svg5"
   sodipodi:docname="RockstarGames.svg"
   xmlns:inkscape="http://www.inkscape.org/namespaces/inkscape"
   xmlns:sodipodi="http://sodipodi.sourceforge.net/DTD/sodipodi-0.dtd"
   xmlns="http://www.w3.org/2000/svg"
   xmlns:svg="http://www.w3.org/2000/svg">
  <defs
     id="defs5" />
  <sodipodi:namedview
     id="namedview5"
     pagecolor="#ffffff"
     bordercolor="#000000"
     borderopacity="0.25"
     inkscape:showpageshadow="2"
     inkscape:pageopacity="0.0"
     inkscape:pagecheckerboard="0"
     inkscape:deskcolor="#d1d1d1" />
  <path
     d="m 214.5,197.4 c -1,1 -2.1,1.5 -3.5,1.5 -1.4,0 -2.5,-0.5 -3.5,-1.5 -1,-1 -1.4,-2.1 -1.4,-3.5 0,-1.4 0.5,-2.5 1.4,-3.5 1,-1 2.1,-1.4 3.5,-1.4 1.4,0 2.5,0.5 3.5,1.4 1,1 1.5,2.1 1.5,3.5 0,1.3 -0.5,2.5 -1.5,3.5 z m -6.5,-6.5 c -0.8,0.8 -1.2,1.8 -1.2,3 0,1.2 0.4,2.2 1.2,3 0.8,0.8 1.8,1.3 3,1.3 1.2,0 2.2,-0.4 3,-1.3 0.8,-0.8 1.2,-1.8 1.2,-3 0,-1.2 -0.4,-2.2 -1.2,-3 -0.8,-0.8 -1.8,-1.2 -3,-1.2 -1.1,-0.1 -2.1,0.3 -3,1.2 z m 3,0.2 c 0.7,0 1.2,0.1 1.5,0.2 0.6,0.2 0.8,0.7 0.8,1.4 0,0.5 -0.2,0.8 -0.5,1.1 -0.2,0.1 -0.5,0.2 -0.8,0.3 0.4,0.1 0.7,0.2 0.9,0.5 0.2,0.3 0.3,0.6 0.3,0.8 v 1.2 h -0.9 v -0.7 c 0,-0.6 -0.2,-1 -0.5,-1.2 -0.2,-0.1 -0.6,-0.2 -1.1,-0.2 H 210 v 2.1 h -1 v -5.4 h 2 z m 1,0.9 c -0.2,-0.1 -0.6,-0.2 -1.2,-0.2 H 210 v 1.9 h 0.9 c 0.4,0 0.7,0 0.9,-0.1 0.4,-0.1 0.6,-0.4 0.6,-0.8 0,-0.4 -0.2,-0.6 -0.4,-0.8 z"
     id="path1" />
  <path
     d="M 178.4,0 H 38.3 C 17.2,0 0,16.7 0,37.1 v 124.5 c 0,20.7 16.6,37 37.9,37 h 140.2 c 21.3,0 37.9,-16.3 37.9,-37 V 37.1 C 216,16.3 199.5,0 178.4,0 m 33.3,161.6 c 0,18.4 -14.8,32.7 -33.7,32.7 H 37.9 C 19,194.4 4.3,180 4.3,161.6 V 37.1 C 4.3,18.7 19.2,4.2 38.3,4.2 h 140.2 c 18.7,0 33.3,14.4 33.3,32.9 v 124.5 z"
     fill="#040301"
     id="path2" />
  <path
     d="m 211.7,161.6 c 0,18.4 -14.8,32.7 -33.7,32.7 H 37.9 C 19,194.4 4.3,180 4.3,161.6 V 37.1 C 4.3,18.7 19.2,4.2 38.3,4.2 h 140.2 c 18.7,0 33.3,14.4 33.3,32.9 v 124.5 z"
     fill="#ffab00"
     id="path3" />
  <path
     d="m 173,122.1 h -17.9 l -3.1,-19.5 -11.5,19.3 h -18.1 l 11,11.6 -9,19.5 19.8,-11.8 15.5,12 -2.9,-19.7"
     fill="#ffffff"
     id="path4" />
  <path
     d="m 185.5,118.2 h -27.1 l -4.3,-27 -15.8,26.8 h -3 c -1.8,-3.1 -2.5,-7.6 -2.5,-10.4 0,-4.6 0.3,-9.1 0.3,-15 0,-7.8 -2.3,-11.9 -8.4,-13.4 V 79 c 12.9,-1.8 18.8,-10.4 18.8,-22.4 0,-17.1 -11.4,-20.8 -26.3,-20.8 H 77.1 l -17,80.4 h 21.3 l 6.2,-29.3 h 14.2 c 7.6,0 10.7,3.7 10.7,10.8 0,5.4 -0.6,9.7 -0.6,13.8 0,1.5 0.3,5.1 1.4,6.5 l 15.4,16.3 -13.3,28.5 28.4,-16.9 21.2,16.3 -3.9,-26.9 z M 108.2,71.9 h -17 l 4.1,-19.4 h 15.8 c 5.6,0 11.5,1.5 11.5,8.3 0,8.7 -6.7,11.1 -14.4,11.1 m 36,69.3 -19.8,11.8 9.1,-19.4 -11,-11.6 h 18.1 l 11.4,-19.3 3.1,19.5 h 18 l -16.2,11.3 2.9,19.8 z"
     fill="#040301"
     id="path5" />
</svg>
